<svg xmlns="http://www.w3.org/2000/svg" viewBox="0 0 512 512">
  <rect width="512" height="512" rx="90" fill="#4FC3F7"/>

  <!-- Rainbow backdrop (layered circles) -->
  <circle cx="256" cy="510" r="420" fill="#dc2626"/>
  <circle cx="256" cy="510" r="380" fill="#f97316"/>
  <circle cx="256" cy="510" r="340" fill="#facc15"/>
  <circle cx="256" cy="510" r="300" fill="#22c55e"/>
  <circle cx="256" cy="510" r="260" fill="#3b82f6"/>
  <circle cx="256" cy="510" r="220" fill="#8b5cf6"/>
  <circle cx="256" cy="510" r="180" fill="#4FC3F7"/>

  <!-- Eighth note: Noto Music stem+flag, head is a tilted ellipse matching staff notes (rx/ry = 20/16, rotate -12° visual) -->
  <g transform="translate(174, 495) scale(0.43, -0.43)" fill="#000000" stroke="#000000" stroke-width="20" stroke-linejoin="round">
    <path d="M325 1009H351Q357 968 366.0 936.5Q375 905 392.0 875.5Q409 846 437 812Q467 777 487.0 753.5Q507 730 527 704Q564 658 581.5 609.5Q599 561 599 511Q599 407 511 259H495Q523 318 545.5 377.5Q568 437 568 491Q568 545 540 602Q512 659 461.5 698.0Q411 737 351 741V175L325 175Z"/>
    <ellipse cx="191" cy="175" rx="160" ry="128" transform="rotate(12 191 175)"/>
  </g>
</svg>
